<?xml version="1.0" standalone="no"?>
<!DOCTYPE svg PUBLIC "-//W3C//DTD SVG 20010904//EN"
 "http://www.w3.org/TR/2001/REC-SVG-20010904/DTD/svg10.dtd">
<svg version="1.0" xmlns="http://www.w3.org/2000/svg"
 width="1507.000000pt" height="1507.000000pt" viewBox="0 0 1507.000000 1507.000000"
 preserveAspectRatio="xMidYMid meet">
<metadata>
Created by potrace 1.14, written by Peter Selinger 2001-2017
</metadata>
<g transform="translate(0.000000,1507.000000) scale(0.100000,-0.100000)"
fill="#000000" stroke="none">
<path d="M7229 15046 c-2 -2 -62 -7 -134 -10 -71 -4 -150 -9 -175 -11 -146
-13 -190 -18 -335 -36 -88 -11 -173 -22 -190 -25 -16 -3 -39 -7 -50 -9 -62 -8
-110 -17 -115 -20 -3 -2 -30 -6 -60 -10 -30 -4 -58 -9 -61 -11 -3 -2 -21 -6
-40 -9 -76 -13 -346 -74 -434 -99 -5 -2 -23 -6 -40 -11 -150 -38 -618 -186
-680 -215 -11 -5 -74 -30 -140 -56 -66 -25 -138 -54 -160 -64 -220 -97 -303
-136 -445 -207 -405 -203 -733 -405 -1115 -688 -138 -102 -177 -132 -209 -160
-6 -6 -31 -26 -56 -45 -25 -19 -47 -37 -50 -40 -3 -3 -34 -30 -70 -60 -36 -30
-67 -57 -70 -60 -3 -3 -48 -43 -100 -90 -214 -190 -564 -554 -740 -770 -25
-30 -47 -57 -50 -60 -7 -6 -109 -135 -135 -171 -11 -14 -45 -60 -76 -100 -340
-451 -679 -1047 -901 -1584 -129 -314 -259 -693 -324 -950 -4 -16 -8 -34 -10
-40 -17 -60 -100 -420 -109 -475 -3 -19 -12 -71 -20 -115 -8 -44 -17 -98 -20
-120 -4 -22 -12 -80 -20 -130 -7 -49 -17 -119 -20 -155 -4 -36 -9 -73 -11 -83
-2 -10 -6 -55 -9 -100 -4 -45 -8 -93 -11 -107 -25 -156 -25 -1001 1 -1230 2
-19 6 -67 9 -107 3 -39 8 -86 10 -105 3 -18 7 -57 11 -86 3 -28 8 -69 10 -90
3 -20 8 -53 11 -72 22 -158 42 -271 80 -460 27 -132 94 -407 122 -500 9 -30
17 -57 17 -60 31 -126 149 -472 235 -685 68 -170 70 -173 101 -243 16 -35 29
-65 29 -68 0 -14 196 -405 270 -539 278 -502 617 -978 1002 -1408 88 -98 394
-407 498 -503 126 -116 290 -255 475 -402 49 -39 301 -222 380 -276 437 -300
927 -562 1445 -771 63 -26 120 -48 125 -49 6 -2 23 -8 38 -15 126 -51 666
-220 787 -245 14 -3 86 -19 160 -37 74 -17 146 -33 160 -35 14 -3 57 -11 95
-19 39 -7 86 -16 105 -19 19 -3 46 -8 60 -11 14 -3 39 -7 55 -9 17 -3 78 -11
135 -20 125 -18 216 -29 355 -42 39 -3 86 -8 105 -10 283 -26 945 -26 1240 1
142 13 240 24 280 30 14 2 50 6 80 10 30 3 80 10 110 15 30 5 71 12 90 14 19
3 46 7 60 10 14 3 42 7 63 10 156 24 536 112 781 182 233 67 640 209 781 273
11 5 74 33 140 61 369 160 780 383 1135 619 80 52 150 99 155 103 6 4 91 68
190 142 187 139 383 299 545 445 198 178 544 534 685 706 28 33 52 62 55 65
12 10 168 207 211 265 24 33 46 62 50 65 5 4 77 106 181 255 280 401 598 1005
785 1490 113 292 253 735 288 905 2 8 10 42 18 75 9 33 18 71 21 85 2 14 16
77 29 140 27 129 54 272 63 340 4 25 7 52 9 60 2 17 15 104 20 140 9 58 32
275 40 376 31 364 26 1003 -9 1334 -3 30 -8 75 -11 100 -9 88 -26 226 -35 280
-5 30 -11 71 -14 90 -3 19 -8 46 -11 60 -2 13 -7 42 -10 65 -7 51 -51 264 -77
375 -11 47 -21 92 -23 100 -38 174 -205 718 -250 817 -8 17 -15 34 -15 37 0
15 -122 314 -185 452 -42 92 -221 453 -256 514 -35 63 -125 217 -153 264 -11
17 -24 40 -30 51 -98 176 -530 776 -643 893 -7 7 -29 34 -50 60 -21 26 -58 69
-83 97 -25 27 -70 76 -100 110 -84 93 -404 410 -510 506 -182 164 -440 371
-650 522 -155 111 -440 297 -545 357 -16 9 -75 43 -130 75 -261 151 -630 327
-930 444 -88 35 -180 71 -205 81 -139 55 -624 202 -775 235 -11 2 -90 20 -175
39 -131 29 -256 54 -415 80 -32 5 -170 25 -220 31 -131 18 -197 26 -240 30
-74 6 -184 15 -267 21 -85 7 -784 15 -789 10z"/>
</g>
</svg>
